HIERARCHY
ROOT Hips
{
  OFFSET -309.14 97.7185 319.331
  CHANNELS 6 Xposition Yposition Zposition Zrotation Xrotation Yrotation
  JOINT ToSpine
  {
    OFFSET -2.69724 7.43032 -0.144315
    CHANNELS 3 Zrotation Xrotation Yrotation
    JOINT Spine
    {
      OFFSET -0.0310711 10.7595 1.96963
      CHANNELS 3 Zrotation Xrotation Yrotation
      JOINT Spine1
      {
        OFFSET 19.9056 3.91189 0.764692
        CHANNELS 3 Zrotation Xrotation Yrotation
        JOINT Neck
        {
          OFFSET 25.9749 7.03908 -0.130764
          CHANNELS 3 Zrotation Xrotation Yrotation
          JOINT Head
          {
            OFFSET 9.52751 0.295786 -0.907742
            CHANNELS 3 Zrotation Xrotation Yrotation
            End Site
            {
              OFFSET 16.4037 0.713936 2.7358
            }
          }
        }
        JOINT LeftShoulder
        {
          OFFSET 17.7449 4.33886 11.7777
          CHANNELS 3 Zrotation Xrotation Yrotation
          JOINT LeftArm
          {
            OFFSET 0.911315 1.27913 9.80584
            CHANNELS 3 Zrotation Xrotation Yrotation
            JOINT LeftForeArm
            {
              OFFSET 28.6126 1.18197 -3.53199
              CHANNELS 3 Zrotation Xrotation Yrotation
              JOINT LeftHand
              {
                OFFSET 27.5088 0.0218783 0.327423
                CHANNELS 3 Zrotation Xrotation Yrotation
                End Site
                {
                  OFFSET 18.6038 -0.000155887 0.382096
                }
              }
            }
          }
        }
        JOINT RightShoulder
        {
          OFFSET 17.1009 2.89543 -12.2328
          CHANNELS 3 Zrotation Xrotation Yrotation
          JOINT RightArm
          {
            OFFSET 1.4228 0.178766 -10.211
            CHANNELS 3 Zrotation Xrotation Yrotation
            JOINT RightForeArm
            {
              OFFSET 28.733 1.87905 2.64907
              CHANNELS 3 Zrotation Xrotation Yrotation
              JOINT RightHand
              {
                OFFSET 27.4588 0.290562 -0.101845
                CHANNELS 3 Zrotation Xrotation Yrotation
                End Site
                {
                  OFFSET 17.8396 -0.255518 -0.000602873
                }
              }
            }
          }
        }
      }
    }
  }
  JOINT LeftUpLeg
  {
    OFFSET -5.61296 -2.22332 -10.2353
    CHANNELS 3 Zrotation Xrotation Yrotation
    JOINT LeftLeg
    {
      OFFSET 2.56703 -44.7417 -7.93097
      CHANNELS 3 Zrotation Xrotation Yrotation
      JOINT LeftFoot
      {
        OFFSET 3.16933 -46.5642 -3.96578
        CHANNELS 3 Zrotation Xrotation Yrotation
        JOINT LeftToeBase
        {
          OFFSET 0.346054 -6.02161 12.8035
          CHANNELS 3 Zrotation Xrotation Yrotation
          End Site
          {
            OFFSET 0.134235 -1.35082 5.13018
          }
        }
      }
    }
  }
  JOINT RightUpLeg
  {
    OFFSET -5.7928 -1.72406 10.6446
    CHANNELS 3 Zrotation Xrotation Yrotation
    JOINT RightLeg
    {
      OFFSET -2.57161 -44.7178 -7.85259
      CHANNELS 3 Zrotation Xrotation Yrotation
      JOINT RightFoot
      {
        OFFSET -3.10148 -46.5936 -4.03391
        CHANNELS 3 Zrotation Xrotation Yrotation
        JOINT RightToeBase
        {
          OFFSET -0.0828122 -6.13587 12.8035
          CHANNELS 3 Zrotation Xrotation Yrotation
          End Site
          {
            OFFSET -0.131328 -1.35082 5.13018
          }
        }
      }
    }
  }
}
MOTION
Frames:	18
Frame Time:	0.0333333
-309.14 97.7185 319.331 59.7569 44.897 19.2197 -70.1915 0 88.8779 94.202 72.5664 -7.38462 1.73355 20.6826 5.83052 -152.205 22.8439 178.966 -154.696 60.6752 170.013 2.95716 -3.34368 -41.9589 -105.609 40.4513 -86.0355 -16.6589 51.817 12.0861 9.36033 -0.178409 -0.494214 -0.165052 0.218507 56.2882 -78.9842 -20.7254 94.9954 -6.72799 -14.0983 8.56921 10.9474 -0.617041 -7.1895 -34.0491 -10.8883 87.2165 2.99323 10.4343 -1.08307 2.43115 6.3695 -0.0846393 -4.22642 -10.5502 6.27581 -67.6571 3.98328 77.9825 0.466587 25.1106 2.62039 -8.2582 -7.38885 1.17012 -4.45214 -21.7224 -6.08542 
-307.556 97.4714 317.581 60.3954 43.6491 19.5751 -70.1915 0 88.8779 99.2336 72.5308 -11.0795 1.57708 21.3575 4.43614 -153.432 21.5433 179.201 -154.896 59.5478 172.498 2.80564 -3.7456 -41.3827 -107.404 40.0791 -83.0049 -16.1654 51.9243 12.1173 8.01947 -0.0929525 0.318758 -0.153239 0.186717 56.4445 -78.9444 -20.7655 95.9881 -6.45594 -15.7042 8.57231 11.182 -0.468098 -5.42917 -33.6772 -9.18239 87.8849 2.76057 11.4113 -1.01437 3.33322 7.11504 -0.210923 -4.76927 -12.178 7.22007 -69.1221 5.1783 78.6758 0.334428 24.9285 3.19521 -8.50067 -7.09644 1.18483 -4.33987 -21.4445 -5.39841 
-305.869 97.3653 315.604 61.7037 42.7254 19.2319 -70.1915 0 88.8779 106.144 72.3759 -17.4281 0.562539 21.7241 4.11669 -155.18 20.6598 -179.844 -155.702 59.0057 175.919 2.74285 -3.93414 -41.23 -108.435 39.6396 -81.6555 -16.0438 52.8807 12.3885 7.87895 -0.0950753 0.265068 -0.148101 0.183337 56.0443 -76.983 -21.2038 97.2321 -5.78254 -13.705 10.0578 11.4161 -0.525187 -5.92197 -33.6884 -7.46818 88.9916 1.98838 14.6058 -0.947199 4.5041 9.26547 -0.353426 -5.49605 -14.7152 9.97186 -70.6272 5.69209 78.8581 0.102096 26.0415 4.28369 -8.34199 -6.54692 1.1759 -4.19331 -21.1647 -4.04666 
-304.038 97.5186 313.415 62.8669 42.1197 18.3685 -70.1915 0 88.8779 111.963 72.1242 -23.8974 -0.404909 22.271 3.87659 -156.451 19.968 179.422 -155.324 58.2423 174.861 2.62419 -4.25999 -40.7571 -109.729 39.2966 -80.222 -15.6156 53.5905 12.6012 5.62774 -0.0502944 0.573223 -0.0595004 -0.0347619 56.3162 -74.2617 -21.3179 97.9084 -4.17529 -11.9622 12.5351 11.7365 -0.251067 -2.94607 -33.9616 -6.87382 89.7756 1.69417 17.7915 -0.138471 5.23694 10.5879 -0.464995 -4.3415 -11.0529 10.3226 -71.967 5.42948 79.3398 -0.154598 27.5048 5.08193 -8.28842 -4.66937 1.17365 -4.38929 -22.3191 -2.91868 
-301.727 97.7083 310.886 63.1569 42.097 17.4406 -70.1915 0 88.8779 110.508 72.8697 -24.567 -0.182608 22.9402 3.89491 -155.442 20.6312 175.291 -149.815 57.9844 170.239 2.241 -5.50621 -39.9848 -110.604 38.7738 -79.0867 -15.5388 54.821 12.9903 5.04752 -0.0430529 0.603199 0.152468 -0.546184 57.2599 -68.6528 -21.2498 98.6078 -2.46176 -5.6438 16.1188 12.3054 -0.220771 -2.52326 -34.5137 -7.72037 89.6196 1.80553 20.5489 0.841327 6.03282 9.29781 -0.657747 -3.39139 -8.1436 6.18823 -72.3037 4.23616 80.3278 0.247164 30.4252 4.45025 -8.13061 -3.30848 1.15983 -4.23989 -22.0849 -1.44138 
-299.433 97.908 308.214 63.7067 42.3965 16.3099 -70.1915 0 88.8779 109.46 73.133 -25.5312 0.200818 23.1784 3.75152 -155.118 20.6383 173.899 -147.644 57.5916 168.802 2.01973 -6.2687 -39.6452 -111.147 38.2708 -78.6911 -15.1955 54.9181 13.0271 4.80204 0.00546136 1.63214 0.153413 -0.544317 56.3178 -65.3495 -23.272 99.1513 -1.0925 -2.13293 18.4807 11.9213 -0.232062 -2.71142 -35.4729 -8.82366 89.4128 1.7604 23.2937 1.74118 7.20542 10.9289 -0.876396 -4.99188 -12.7007 5.79452 -71.4688 2.42755 81.3508 1.2639 35.7277 0.812241 -6.16755 -3.8623 0.986713 -2.93265 -16.1173 7.16098 
-297.357 98.0894 305.83 64.1274 42.5384 15.6854 -70.1915 0 88.8779 108.306 72.6702 -25.7353 0.423038 22.6417 3.30499 -154.064 20.2761 175.162 -149.771 57.7736 171.969 2.07593 -6.06922 -39.7002 -111.589 37.6173 -79.115 -15.546 56.7223 13.6307 2.9419 -0.0629367 -0.813941 0.00873391 -0.20227 56.6441 -62.4487 -23.0459 99.8092 -0.875896 -0.729625 19.1708 11.819 -0.206484 -2.47212 -36.2434 -9.51061 89.4001 1.90784 25.8718 1.98657 7.29961 11.2991 -0.893291 -5.8037 -14.8199 4.71978 -68.2068 0.699372 80.6626 1.51675 43.52 -1.12442 -4.81644 0.101103 0.750951 -2.71098 -13.4381 13.7397 
-295.125 98.3587 303.4 65.0006 43.0345 14.4771 -70.1915 0 88.8779 107.888 72.2445 -27.713 0.194951 22.0382 3.93813 -153.086 19.8492 175.613 -150.096 57.3885 172.582 2.0821 -6.01451 -39.47 -111.63 37.4642 -80.5733 -14.3436 53.9601 12.7441 3.36993 0.0616433 3.33659 -0.0546942 -0.0435243 56.152 -62.0122 -23.7867 100.637 -0.923469 -1.74431 18.7981 11.3405 -0.166998 -2.14605 -38.249 -10.287 89.643 1.7323 27.1923 2.34733 7.96665 10.9588 -1.0388 -6.85632 -17.5264 4.09865 -64.2351 -0.969825 81.0529 2.11755 52.9854 -3.67322 -4.04003 3.96656 0.517456 -2.53815 1.76015 18.8473 
-292.835 98.7628 301.135 66.6354 43.614 13.1716 -70.1915 0 88.8779 109.026 72.077 -31.0838 0.378694 21.7477 5.13946 -151.966 20.118 175.205 -149.11 57.5025 171.924 1.9102 -6.67478 -39.6694 -111.223 37.4693 -83.3586 -15.0611 56.0429 13.4005 1.96418 -0.0140987 0.543306 -0.00392461 -0.16427 56.0611 -61.1588 -23.7973 101.084 -0.597061 -1.13095 19.2857 10.9985 -0.131607 -1.81544 -41.2445 -9.50098 91.5916 0.68013 27.6275 0.703985 9.27756 11.0474 -1.31968 -8.61411 -22.043 3.85709 -59.959 -1.6547 81.7497 3.54664 62.4819 -5.65695 -3.3053 6.72013 0.287681 0.489676 19.7779 9.8092 
-290.428 99.5144 298.48 68.2941 44.5588 13.0305 -70.1915 0 88.8779 109.33 71.1149 -31.1864 1.04042 20.9486 4.99765 -149.928 19.9125 175.992 -149.214 57.379 173.372 1.88183 -6.81105 -39.9564 -110.49 37.5174 -86.8219 -14.7718 55.3437 13.171 15.3877 0.26454 3.57002 -0.0518202 -0.0527086 56.2898 -61.7515 -23.8817 101.017 -0.737223 -1.60623 18.993 10.8735 -0.110134 -1.59384 -45.4115 -9.22798 91.3047 1.09057 26.8125 -0.255033 9.56019 10.5027 -1.37458 -9.72389 -24.5575 3.04128 -55.9732 -1.34016 81.4993 6.80259 70.0781 -5.33831 -2.69373 1.478 0.425021 10.3559 39.2669 -6.93114 
-287.871 100.173 295.888 69.7505 45.4941 13.4173 -70.1915 0 88.8779 109.282 70.5311 -30.8177 1.58323 20.2672 5.53406 -147.856 20.0918 176.04 -148.76 57.4704 173.251 1.84175 -6.99481 -40.3208 -110.148 37.4943 -90.4024 -17.0218 60.6116 15.2014 14.4495 -0.857313 -4.95374 -0.0343193 -0.0947166 56.296 -62.3665 -24.1598 100.434 -0.781561 -1.61356 18.9438 11.4566 -0.167656 -2.13375 -49.197 -8.32982 90.9225 1.44065 26.5064 -1.42033 9.51673 9.39704 -1.35426 -10.5858 -26.3736 2.30942 -52.3337 -0.574385 80.65 11.1056 75.113 -6.48792 -2.20469 -2.45643 0.562773 17.9366 42.2808 -19.8302 
-285.787 99.9638 293.579 69.8504 46.2118 13.4774 -70.1915 0 88.8779 105.668 70.53 -27.6025 2.34952 19.5443 5.46833 -146.814 19.6897 177.46 -150.913 57.3944 175.984 1.96472 -6.56979 -40.4656 -107.779 38.1003 -94.7768 -15.3275 54.2214 12.8074 5.30158 0.0874256 3.30662 -0.0769959 0.012637 56.0101 -62.6588 -24.7515 99.6002 -0.794577 -1.81346 18.8635 11.2913 -0.140533 -1.87088 -50.2235 -8.81594 91.0467 2.07387 28.5848 -1.96386 9.62807 8.06873 -1.36186 -11.8221 -29.0351 1.68877 -48.533 -0.785537 80.8625 12.2979 77.0255 -10.0685 -4.8769 5.31729 0.609464 1.39827 12.0205 3.01659 
-283.312 100.328 291.085 69.827 47.1275 14.4078 -70.1915 0 88.8779 103.211 70.2607 -25.2029 2.31487 18.7138 6.34817 -145.383 19.6547 177.768 -151.458 57.3803 176.464 2.00808 -6.3738 -40.1353 -103.912 38.8559 -98.8726 -15.9459 50.5319 11.7825 7.55899 0.168263 4.0246 -0.106973 0.0923648 55.6402 -63.7167 -25.6818 97.998 -0.773669 -2.46798 18.6437 11.2309 -0.18171 -2.32309 -52.8218 -7.57969 92.7184 2.29767 28.0845 -5.01253 10.1677 7.09459 -1.44868 -12.4402 -30.2819 1.30371 -44.8163 -0.232567 80.4195 12.6304 76.9432 -9.17957 -5.3707 5.45939 0.688658 0.430001 3.69474 1.29856 
-280.968 100.584 288.578 69.7547 48.0322 15.4872 -70.1915 0 88.8779 101.505 69.8365 -23.1828 1.87341 17.913 6.89523 -142.983 19.2719 177.243 -150.561 56.8674 176.24 1.96635 -6.50893 -40.0027 -101.455 39.2459 -102.388 -16.3467 48.3975 11.2776 9.61203 0.10726 2.84632 -0.061686 -0.0141953 55.433 -67.8918 -26.1117 95.6286 -2.09775 -5.64614 16.4693 11.0608 0.0163934 -0.186016 -55.3342 -6.48156 94.1134 2.89252 27.5762 -7.95503 10.3301 6.3383 -1.46514 -13.1177 -31.629 0.917432 -41.7369 0.155147 79.5631 10.3542 74.4199 -5.88272 -6.91979 4.77459 0.957215 -0.0920333 -1.70167 -1.82377 
-278.534 100.642 286.19 69.364 48.7594 16.5118 -70.1915 0 88.8779 99.4772 69.8742 -20.7164 2.32722 18.0305 5.85086 -142.256 18.5485 171.788 -145.419 55.4701 169.695 1.76602 -6.90638 -36.8897 -98.1918 41.6191 -106.408 -16.9807 48.4308 11.2683 12.5111 0.043405 2.0237 0.190085 -0.633279 56.8573 -69.8072 -25.7665 94.2928 -2.42845 -7.32037 15.6555 10.3513 -0.105541 -1.60643 -57.3249 -5.31114 95.5171 3.14519 27.5337 -10.5677 10.3244 5.38164 -1.44784 -13.6895 -32.7328 0.582867 -38.9673 0.442658 78.8934 7.56734 70.0513 -2.4923 -7.01795 3.93071 0.981782 -0.66969 -5.7286 -4.31955 
-276.146 100.601 283.615 68.6967 49.9972 17.5657 -70.1915 0 88.8779 97.9887 69.5078 -19.2276 1.76423 17.3984 6.4945 -141.305 18.6946 171.583 -145.237 55.6638 169.738 1.71766 -7.10053 -36.869 -94.5483 41.2094 -110.263 -15.4693 47.0195 7.94789 12.8541 -0.251984 -0.540045 0.195749 -0.646539 56.7956 -71.4388 -26.2256 91.9937 -2.79925 -7.95989 15.0592 9.34403 -0.253256 -3.68798 -59.5077 -5.00414 95.9255 3.67852 27.2183 -12.4923 10.2999 4.0687 -1.42162 -13.8618 -33.1122 0.574857 -37.4392 0.0065109 77.9258 4.97921 63.3738 -0.0636662 -7.1911 2.69452 1.01949 -1.20159 -8.40137 -5.32169 
-273.667 100.399 281.237 67.9121 50.6384 18.6773 -70.1915 0 88.8779 96.2829 69.4102 -17.578 1.63277 17.0091 7.28355 -142.069 18.7895 172.268 -146.516 55.8885 170.273 1.85538 -6.46748 -36.3272 -91.1261 41.8363 -115.204 -10.9761 46.1985 1.21809 12.2689 -0.307519 -1.14886 0.121609 -0.472246 56.9693 -73.7624 -26.041 89.7128 -3.21658 -9.33468 14.1817 8.8201 -0.260904 -4.00807 -60.9994 -4.07484 96.657 3.81273 27.6994 -14.1839 10.4368 3.01672 -1.42386 -14.4996 -34.4553 0.456195 -36.4072 0.399539 77.4714 3.032 54.5266 0.903256 -7.02999 2.07154 1.00246 -1.58519 -10.25 -6.36599 
-271.136 100.129 278.754 66.8685 51.0227 19.6236 -70.1915 0 88.8779 93.3366 69.4566 -14.2498 1.8207 17.0271 7.06525 -141.836 19.1029 171.955 -146.402 56.3212 170.711 1.83706 -6.52709 -36.2047 -85.9793 40.4766 -120.527 -6.26118 43.1819 -5.5805 11.4041 -0.451125 -2.75807 0.144946 -0.527417 57.0122 -76.7781 -26.1128 87.7692 -3.96228 -11.6861 12.6956 9.0807 -0.262843 -3.92153 -62.485 -3.52606 97.1954 3.89409 27.8876 -15.367 10.2912 2.06302 -1.38651 -14.9754 -35.431 0.345411 -36.3033 0.824703 77.6047 1.79132 43.5825 1.39759 -6.26694 2.25724 0.892892 -1.61711 -10.1449 -5.17368 
